<svg width="26" height="27" viewBox="0 0 26 27" fill="none" xmlns="http://www.w3.org/2000/svg">
<path d="M24.3544 9.5445C24.8483 11.7781 23.8462 13.8542 22.116 14.1816C20.3859 14.509 18.5829 12.9636 18.089 10.73C17.7695 9.28507 18.0713 7.83694 18.8808 6.9311C19.6903 6.02525 20.8845 5.79929 22.0135 6.33835C23.1425 6.87741 24.0349 8.09959 24.3544 9.5445Z" fill="#F9F9FD"/>
<path d="M15.5678 9.91176C14.5281 10.2586 13.2866 9.83506 12.3117 8.80096C11.3369 7.76687 10.7773 6.2797 10.8441 4.90078C10.911 3.52185 11.594 2.46114 12.6355 2.11901C13.6752 1.77216 14.9168 2.19571 15.8916 3.22981C16.8664 4.26391 17.426 5.75107 17.3592 7.13C17.2924 8.50892 16.6093 9.56963 15.5678 9.91176Z" fill="#F9F9FD"/>
<path d="M9.43104 11.9159C8.45498 12.3996 7.16541 12.1464 6.04897 11.252C4.93254 10.3576 4.15922 8.95814 4.02084 7.5817C3.88246 6.20525 4.40009 5.06142 5.37839 4.58184C6.35445 4.09821 7.64403 4.35136 8.76046 5.24576C9.8769 6.14016 10.6502 7.53965 10.7886 8.91609C10.927 10.2925 10.4093 11.4364 9.43104 11.9159Z" fill="#F9F9FD"/>
<path d="M5.97277 19.656C4.83648 20.0348 3.50561 19.6408 2.48247 18.6227C1.45933 17.6046 0.899723 16.1174 1.01487 14.7225C1.13002 13.3276 1.90239 12.2373 3.04045 11.8632C4.17674 11.4844 5.50762 11.8784 6.53076 12.8965C7.5539 13.9146 8.11351 15.4018 7.99836 16.7967C7.88321 18.1916 7.11084 19.2819 5.97277 19.656Z" fill="#F9F9FD"/>
<path d="M10.5737 15.4651C10.941 14.0852 11.8578 13.0515 11.8578 13.0515C14.5838 10.9619 17.2809 13.307 17.2809 13.307C18.8032 14.5368 21.8907 15.7379 21.8907 15.7379C24.313 16.5012 24.8216 18.4268 24.8216 18.4268C25.7547 22.2993 22.7238 23.0159 22.7238 23.0159C21.162 23.5265 19.1655 23.4618 19.1655 23.4618C17.7657 23.1274 15.1163 24.2318 15.1163 24.2318C14.6767 24.4222 11.6507 25.7817 11.6507 25.7817C9.65072 26.6431 7.6922 24.6774 7.6922 24.6774C5.84439 22.1608 7.12537 20.6734 7.12537 20.6734C9.80335 17.7908 10.5737 15.4651 10.5737 15.4651Z" fill="#F9F9FD"/>
<path d="M24.3544 9.5445C24.8483 11.7781 23.8462 13.8542 22.116 14.1816C20.3859 14.509 18.5829 12.9636 18.089 10.73C17.7695 9.28507 18.0713 7.83694 18.8808 6.9311C19.6903 6.02525 20.8845 5.79929 22.0135 6.33835C23.1425 6.87741 24.0349 8.09959 24.3544 9.5445Z" stroke="black" stroke-width="2"/>
<path d="M15.5678 9.91176C14.5281 10.2586 13.2866 9.83506 12.3117 8.80096C11.3369 7.76687 10.7773 6.2797 10.8441 4.90078C10.911 3.52185 11.594 2.46114 12.6355 2.11901C13.6752 1.77216 14.9168 2.19571 15.8916 3.22981C16.8664 4.26391 17.426 5.75107 17.3592 7.13C17.2924 8.50892 16.6093 9.56963 15.5678 9.91176Z" stroke="black" stroke-width="2"/>
<path d="M9.43104 11.9159C8.45498 12.3996 7.16541 12.1464 6.04897 11.252C4.93254 10.3576 4.15922 8.95814 4.02084 7.5817C3.88246 6.20525 4.40009 5.06142 5.37839 4.58184C6.35445 4.09821 7.64403 4.35136 8.76046 5.24576C9.8769 6.14016 10.6502 7.53965 10.7886 8.91609C10.927 10.2925 10.4093 11.4364 9.43104 11.9159Z" stroke="black" stroke-width="2"/>
<path d="M5.97277 19.656C4.83648 20.0348 3.50561 19.6408 2.48247 18.6227C1.45933 17.6046 0.899723 16.1174 1.01487 14.7225C1.13002 13.3276 1.90239 12.2373 3.04045 11.8632C4.17674 11.4844 5.50762 11.8784 6.53076 12.8965C7.5539 13.9146 8.11351 15.4018 7.99836 16.7967C7.88321 18.1916 7.11084 19.2819 5.97277 19.656Z" stroke="black" stroke-width="2"/>
<path d="M10.5737 15.4651C10.941 14.0852 11.8578 13.0515 11.8578 13.0515C14.5838 10.9619 17.2809 13.307 17.2809 13.307C18.8032 14.5368 21.8907 15.7379 21.8907 15.7379C24.313 16.5012 24.8216 18.4268 24.8216 18.4268C25.7547 22.2993 22.7238 23.0159 22.7238 23.0159C21.162 23.5265 19.1655 23.4618 19.1655 23.4618C17.7657 23.1274 15.1163 24.2318 15.1163 24.2318C14.6767 24.4222 11.6507 25.7817 11.6507 25.7817C9.65072 26.6431 7.6922 24.6774 7.6922 24.6774C5.84439 22.1608 7.12537 20.6734 7.12537 20.6734C9.80335 17.7908 10.5737 15.4651 10.5737 15.4651Z" stroke="black" stroke-width="2"/>
</svg>
