<svg width="69" height="81" viewBox="0 0 69 81" fill="none" xmlns="http://www.w3.org/2000/svg">
<path fill-rule="evenodd" clip-rule="evenodd" d="M24.5273 2.56642C27.73 2.34258 29.9743 3.51999 31.4765 5.69948C31.6775 5.99122 31.8656 6.31009 32.0388 6.65673C32.3907 6.51358 32.7381 6.3992 33.08 6.31169C35.5885 5.66948 38.0729 6.19437 40.4546 8.29854C42.1268 9.77585 43.1705 12.0969 42.6032 15.7561C42.3386 17.4632 41.6829 19.5536 40.5943 22.0171C52.4238 34.5575 61.127 52.4419 66.5468 75.7697L5.33662 75.7697C6.00017 60.089 8.75414 45.1813 13.5898 31.0446C10.8005 27.4533 8.88802 24.1786 8.10281 21.4121C7.54104 19.4328 7.49693 17.6358 7.89862 16.045C8.33152 14.3306 9.26619 12.8 10.8402 11.5188C12.8334 9.89634 15.0258 9.36951 17.3945 9.84044L17.2893 9.82131L17.3417 9.52345C17.4674 8.84975 17.6329 8.23994 17.8333 7.693L17.9363 7.42477C18.54 5.92626 19.419 4.81231 20.4887 4.01421C21.5933 3.19009 22.9279 2.6782 24.5273 2.56642Z" fill="#EF8D34" stroke="black" stroke-width="4" stroke-linejoin="round"/>
<path fill-rule="evenodd" clip-rule="evenodd" d="M22.1352 72.1465C23.374 59.4232 25.4667 51.5576 28.4132 48.5497C32.6641 44.2103 39.3801 52.0759 48.5611 72.1465H22.1352Z" fill="white"/>
</svg>
