<svg width="73" height="72" viewBox="0 0 73 72" fill="none" xmlns="http://www.w3.org/2000/svg">
<circle cx="36.6604" cy="35.9986" r="33.9986" stroke="black" stroke-width="4"/>
<g clip-path="url(#clip0_129_64)">
<path fill-rule="evenodd" clip-rule="evenodd" d="M68.492 32.7092C68.6024 33.7906 68.659 34.888 68.659 35.9986C68.659 53.6709 54.3327 67.9971 36.6604 67.9971C29.4497 67.9971 22.7961 65.6121 17.4454 61.5878C25.4588 61.308 34.2479 58.7629 43.8126 53.9527C55.3095 48.1709 63.475 41.1938 68.309 33.0214L68.492 32.7092ZM36.6604 4C51.1322 4 63.3602 13.6071 67.3146 26.7915C64.8866 31.4136 61.1091 35.2992 55.643 38.8905L55.6426 20.2705C55.6426 19.0723 54.6713 18.1011 53.4732 18.1011H48.0497C46.8516 18.1011 45.8803 19.0723 45.8803 20.2705L45.8813 44.2311C44.5024 44.8759 43.0568 45.5183 41.5421 46.1612L41.5416 27.8633C41.5416 26.6652 40.5703 25.6939 39.3722 25.6939H33.9487C32.7506 25.6939 31.7793 26.6652 31.7793 27.8633L31.779 49.9173C30.2699 50.4296 28.8237 50.8833 27.4404 51.2785L27.4405 33.2868C27.4405 32.0887 26.4692 31.1174 25.2711 31.1174H19.8476C18.6495 31.1174 17.6782 32.0887 17.6782 33.2868L17.678 53.1949C13.8988 53.4901 10.9405 53.0217 8.80323 51.7899L8.83383 51.8081C6.1786 47.1447 4.66187 41.7488 4.66187 35.9986C4.66187 18.3262 18.9881 4 36.6604 4Z" fill="white"/>
</g>
<defs>
<clipPath id="clip0_129_64">
<rect width="63.9971" height="63.9971" fill="white" transform="translate(4.66187 4)"/>
</clipPath>
</defs>
</svg>
