<svg width="68" height="68" viewBox="0 0 68 68" fill="none" xmlns="http://www.w3.org/2000/svg">
<path d="M30.896 4.22631C17.2863 5.74916 6.16338 17.3757 4.68407 31.0814C3.20475 45.3962 11.369 57.8307 23.4994 62.7038C24.387 63.0084 25.2746 62.3993 25.2746 61.181V56.3078C25.2746 56.3078 24.0911 56.6124 22.6118 56.6124C18.4697 56.6124 16.6946 52.9576 16.3987 50.8256C16.1028 49.6073 15.5111 48.6936 14.6235 47.7799C13.7359 47.4753 13.4401 47.4753 13.4401 47.1707C13.4401 46.5616 14.3277 46.5616 14.6235 46.5616C16.3987 46.5616 17.878 48.6936 18.4697 49.6073C19.949 52.0439 21.7242 52.653 22.6118 52.653C23.7953 52.653 24.6828 52.3484 25.2746 52.0439C25.5704 49.9119 26.458 47.7799 28.2332 46.5616C21.4284 45.0387 16.3987 41.0793 16.3987 34.3788C16.3987 31.0285 17.878 27.6782 19.949 25.2417C19.6532 24.6325 19.3573 23.1097 19.3573 20.9777C19.3573 19.7594 19.3573 17.932 20.2449 16.1046C20.2449 16.1046 24.387 16.1046 28.5291 20.064C30.0084 19.4548 32.0794 19.1503 34.1504 19.1503C36.2215 19.1503 38.2925 19.4548 40.0677 20.064C43.9139 16.1046 48.3519 16.1046 48.3519 16.1046C48.9436 17.932 48.9436 19.7594 48.9436 20.9777C48.9436 23.4142 48.6477 24.6325 48.3519 25.2417C50.4229 27.6782 51.9022 30.7239 51.9022 34.3788C51.9022 41.0793 46.8725 45.0387 40.0677 46.5616C41.8429 48.0844 43.0263 50.8256 43.0263 53.5667V61.4855C43.0263 62.3993 43.9139 63.313 45.0974 63.0084C56.0443 58.4398 63.7367 46.3339 63.7367 33.5419C63.7367 15.2677 48.6477 2.09432 30.896 4.22631Z" fill="white"/>
<circle cx="34.2104" cy="33.5419" r="31.5263" stroke="black" stroke-width="4"/>
</svg>
