<svg width="72" height="72" viewBox="0 0 72 72" fill="none" xmlns="http://www.w3.org/2000/svg">
<circle cx="35.9986" cy="35.9986" r="33.9986" stroke="black" stroke-width="4"/>
<g clip-path="url(#clip0_129_69)">
<path fill-rule="evenodd" clip-rule="evenodd" d="M35.9986 4C53.6709 4 67.9971 18.3262 67.9971 35.9986C67.9971 53.6709 53.6709 67.9971 35.9986 67.9971C18.3262 67.9971 4 53.6709 4 35.9986C4 18.3262 18.3262 4 35.9986 4ZM36.7134 13.2199C35.5585 13.2199 34.6246 14.1652 34.6246 15.3315V17.746L34.4082 17.6845L33.8205 17.5183L33.2852 17.3702L33.2693 17.3656H33.2579L29.1965 16.2654C29.1144 16.2439 29.0275 16.2733 28.9754 16.3403C28.9233 16.4072 28.9162 16.4987 28.9573 16.5729L29.6065 17.7711C29.6657 17.9237 29.7545 18.0763 29.8297 18.2381C29.9383 18.4564 30.0431 18.6767 30.1441 18.8986C30.2373 19.1014 30.3337 19.3026 30.4333 19.5023C30.6429 19.9692 30.8707 20.4635 31.0939 21.0057C31.2465 21.3678 31.3969 21.7277 31.5313 22.1036C31.9102 23.0857 32.2469 24.0835 32.5404 25.0944C32.6474 25.4247 32.7226 25.7413 32.8137 26.0716L32.8547 26.2539C32.9782 26.7296 33.08 27.2108 33.1599 27.6957C33.2233 28.0146 33.2727 28.3361 33.308 28.6593C33.3579 29.0183 33.3929 29.3793 33.4128 29.7413C33.4447 30.0716 33.4583 30.4178 33.4583 30.7481C33.4583 31.5909 33.3832 32.4041 33.2055 33.1695C33.144 33.395 33.0825 33.6341 33.0073 33.8619C32.9322 34.1307 32.8251 34.3995 32.7226 34.6888C32.6611 34.8528 32.6019 35.0191 32.5244 35.1831C32.1486 36.0851 31.6816 36.9849 31.201 37.8277C30.4948 39.0782 29.7841 40.1739 29.2876 40.88C29.2192 40.9825 29.1532 41.0736 29.0962 41.1625C29.026 41.2654 29.0177 41.3985 29.0748 41.5093C29.1318 41.6201 29.245 41.6907 29.3696 41.6932H34.6246V45.8435H29.3104C27.8821 45.8435 26.561 45.0348 25.9232 43.7387C25.5929 43.0895 25.463 42.3766 25.5405 41.6773C25.5587 41.47 25.4038 41.2718 25.1897 41.2718H14.4541C14.2719 41.2718 14.1238 41.4199 14.1238 41.6021V41.8231C14.1238 48.6703 19.6545 54.2215 26.4812 54.2215H45.7406C49.0807 54.2215 51.0846 51.4059 52.9611 48.4246L53.4557 47.6334C53.5105 47.5455 53.5653 47.4576 53.6201 47.3698L53.9493 46.8454C54.3342 46.2365 54.7227 45.6405 55.1254 45.0804C56.1846 43.6066 58.7312 42.4381 59.4761 42.1192C59.6003 42.065 59.6811 41.9426 59.6811 41.8071V39.4267C59.6806 39.3231 59.6319 39.2257 59.5492 39.1631C59.4666 39.1006 59.3596 39.0802 59.2597 39.1078L48.0184 42.3584C47.9588 42.3736 47.9049 42.4061 47.8636 42.4517C46.6289 43.8162 45.5857 44.7182 45.3465 44.9278C44.6472 45.52 43.7816 45.8435 42.8705 45.8435H38.7999V41.6932H42.0345C42.1174 41.6934 42.1976 41.6635 42.26 41.6089L42.6769 41.2263C42.8965 41.0263 43.1114 40.8212 43.3215 40.6112C43.4741 40.4586 43.6404 40.2969 43.8044 40.1147C43.9732 39.9474 44.1344 39.7726 44.2873 39.5907C44.5401 39.3174 44.7839 39.0327 45.039 38.732C45.222 38.527 45.3931 38.3118 45.5515 38.0874C45.7337 37.8732 45.9114 37.6341 46.0777 37.4063C46.2007 37.2286 46.3374 37.0464 46.4695 36.8528C46.5902 36.6705 46.7132 36.4769 46.8157 36.2947C47.1346 35.8004 47.4034 35.2742 47.6312 34.7457C47.7497 34.4906 47.8408 34.2218 47.9319 33.9644C48.2408 33.1043 48.3537 32.1859 48.2622 31.2765C48.2462 31.0784 48.2303 30.8848 48.1847 30.7025V30.6729C48.1711 30.5431 48.1392 30.3996 48.0982 30.2652C47.9615 29.6502 47.7497 29.0351 47.4786 28.4315C47.3875 28.2083 47.2827 27.9805 47.1802 27.7709C46.9365 27.3199 46.6813 26.8689 46.3943 26.4315C46.2918 26.2675 46.1688 26.1012 46.064 25.9372C45.8385 25.5933 45.5811 25.263 45.342 24.9441C45.1597 24.7049 44.9502 24.4657 44.7543 24.222C44.5561 23.9828 44.3625 23.755 44.1643 23.5318C43.4582 22.7346 42.7179 22.0125 42.0573 21.3975C41.9365 21.2767 41.8044 21.1537 41.6678 21.0376C41.1552 20.5706 40.6883 20.1629 40.2965 19.8485C40.0983 19.6959 39.9366 19.5478 39.784 19.4271C39.5904 19.2836 39.4377 19.1651 39.333 19.0854C39.3011 19.0626 39.2669 19.0467 39.2327 19.0353L38.7999 18.9146V15.3315C38.8005 14.7732 38.5812 14.2372 38.1895 13.8395C37.8136 13.4545 37.2897 13.2199 36.7134 13.2199ZM26.9069 21.1934C26.7865 21.1848 26.6711 21.2431 26.6065 21.3451L16.9939 36.3812L16.8345 36.6318C16.769 36.7334 16.7647 36.8628 16.8233 36.9685C16.8819 37.0742 16.9938 37.1391 17.1147 37.1375H27.0006C27.11 37.1386 27.2127 37.0847 27.2739 36.994C27.4042 36.7955 27.5251 36.5911 27.6361 36.3812C28.4903 34.9462 29.2489 33.395 29.5268 32.2469C30.1759 29.4611 28.7887 24.9851 27.1828 21.3861C27.1333 21.276 27.0274 21.2019 26.9069 21.1934Z" fill="white"/>
</g>
<defs>
<clipPath id="clip0_129_69">
<rect width="63.9971" height="63.9971" fill="white" transform="translate(4 4)"/>
</clipPath>
</defs>
</svg>
